<?xml version="1.0" encoding="UTF-8" standalone="no"?>
<svg
   xmlns:dc="http://purl.org/dc/elements/1.1/"
   xmlns:cc="http://creativecommons.org/ns#"
   xmlns:rdf="http://www.w3.org/1999/02/22-rdf-syntax-ns#"
   xmlns:svg="http://www.w3.org/2000/svg"
   xmlns="http://www.w3.org/2000/svg"
   xmlns:sodipodi="http://sodipodi.sourceforge.net/DTD/sodipodi-0.dtd"
   xmlns:inkscape="http://www.inkscape.org/namespaces/inkscape"
   version="1.0"
   width="1254.000000pt"
   height="1280.000000pt"
   viewBox="0 0 1254.000000 1280.000000"
   preserveAspectRatio="xMidYMid meet"
   id="svg2031"
   sodipodi:docname="google.svg"
   inkscape:version="0.92.3 (2405546, 2018-03-11)">
  <metadata
     id="metadata2037">
    <rdf:RDF>
      <cc:Work
         rdf:about="">
        <dc:format>image/svg+xml</dc:format>
        <dc:type
           rdf:resource="http://purl.org/dc/dcmitype/StillImage" />
      </cc:Work>
    </rdf:RDF>
  </metadata>
  <defs
     id="defs2035" />
  <sodipodi:namedview
     pagecolor="#ffffff"
     bordercolor="#666666"
     borderopacity="1"
     objecttolerance="10"
     gridtolerance="10"
     guidetolerance="10"
     inkscape:pageopacity="0"
     inkscape:pageshadow="2"
     inkscape:window-width="1920"
     inkscape:window-height="1025"
     id="namedview2033"
     showgrid="false"
     inkscape:zoom="0.13828125"
     inkscape:cx="836"
     inkscape:cy="853.33333"
     inkscape:window-x="1920"
     inkscape:window-y="27"
     inkscape:window-maximized="1"
     inkscape:current-layer="svg2031" />
  <path
     inkscape:connector-curvature="0"
     id="path2027"
     d="M 610,0.6 C 492.1,7 385.3,41.7 289.5,104.7 197.8,165.1 123.1,247.6 72.4,344.5 -27.9,536.4 -23.4,770.2 84.5,958 c 94.8,165.2 260,281.1 445,312.4 41.4,7 65.6,9 111.5,9 37.4,0 50.7,-0.7 80,-4 126.6,-14.3 233.8,-58.6 325,-134.2 15,-12.5 52.9,-50.4 65.6,-65.8 81.6,-98.3 127.3,-214.8 140.1,-357.4 2.1,-24.3 2.4,-94.6 0.5,-117 -2.4,-27.2 -5.7,-54 -8.8,-71.9 -0.8,-4.6 -1.4,-8.5 -1.4,-8.7 0,-0.2 -135.4,-0.4 -301,-0.4 H 640 v 125 125 h 174 c 117.3,0 174,0.3 174,1 0,2.4 -4.5,21.5 -7.6,32 -15,52 -47.2,103 -87.3,138.7 -46.9,41.8 -110.6,70.7 -181.1,82.2 -45.1,7.3 -98,7.4 -137.8,0.1 -107.4,-19.8 -203.9,-87.7 -261.5,-184 -13.5,-22.6 -29.6,-57.8 -34.6,-75.8 -1,-3.7 -3.5,-12.3 -5.5,-19.2 -10.2,-35 -14.1,-64.1 -14.1,-105.5 0,-29.3 0.7,-38.2 4.6,-62 11.4,-70.4 42.3,-136.7 89.5,-192 64.7,-76 152.5,-122.7 249.9,-133 16.4,-1.7 58.3,-2 73.6,-0.5 80.6,8 146.3,36.8 206.7,90.6 l 5.3,4.8 75.7,-75.5 c 41.6,-41.5 78.5,-78.1 81.9,-81.2 3.4,-3.1 9.6,-9.8 13.8,-14.8 l 7.6,-9 -3.3,-3.9 c -1.8,-2.2 -4.6,-5.6 -6.2,-7.5 -1.6,-2 -4.9,-4.8 -7.5,-6.2 -2.5,-1.5 -9.3,-6.6 -15.1,-11.3 C 968.2,82.9 886.8,42 800.3,20.1 764.5,11.1 736.3,6.3 696.5,2.4 682.3,1.1 624,-0.2 610,0.6 Z" />
</svg>
